HIERARCHY
ROOT Hips
{
  OFFSET -31.5692 30.0904 122.763
  CHANNELS 6 Xposition Yposition Zposition Zrotation Xrotation Yrotation
  JOINT LeftUpLeg
  {
    OFFSET 8.64259 1.95398 -2.38835
    CHANNELS 3 Zrotation Xrotation Yrotation
    JOINT LeftLeg
    {
      OFFSET 43.7702 0 0
      CHANNELS 3 Zrotation Xrotation Yrotation
      JOINT LeftFoot
      {
        OFFSET 40.6238 0 0
        CHANNELS 3 Zrotation Xrotation Yrotation
        JOINT LeftToeBase
        {
          OFFSET 12.7242 0 0
          CHANNELS 3 Zrotation Xrotation Yrotation
          End Site
          {
            OFFSET 0 0 0
          }
        }
      }
    }
  }
  JOINT RightUpLeg
  {
    OFFSET -8.2249 1.95398 -2.59336
    CHANNELS 3 Zrotation Xrotation Yrotation
    JOINT RightLeg
    {
      OFFSET 43.5653 0 0
      CHANNELS 3 Zrotation Xrotation Yrotation
      JOINT RightFoot
      {
        OFFSET 40.6238 0 0
        CHANNELS 3 Zrotation Xrotation Yrotation
        JOINT RightToeBase
        {
          OFFSET 12.7242 0 0
          CHANNELS 3 Zrotation Xrotation Yrotation
          End Site
          {
            OFFSET 0 0 0
          }
        }
      }
    }
  }
  JOINT Spine
  {
    OFFSET 0.165834 0.87714 6.61349
    CHANNELS 3 Zrotation Xrotation Yrotation
    JOINT Spine1
    {
      OFFSET 7.38963 1.71661e-005 0
      CHANNELS 3 Zrotation Xrotation Yrotation
      JOINT Spine2
      {
        OFFSET 11.9445 1.14441e-005 0
        CHANNELS 3 Zrotation Xrotation Yrotation
        JOINT Spine3
        {
          OFFSET 14.7254 4.19617e-005 0
          CHANNELS 3 Zrotation Xrotation Yrotation
          JOINT Spine4
          {
            OFFSET 10.9679 0 0
            CHANNELS 3 Zrotation Xrotation Yrotation
            JOINT RightShoulder
            {
              OFFSET 2.46616 -1.6653 3.69651
              CHANNELS 3 Zrotation Xrotation Yrotation
              JOINT RightArm
              {
                OFFSET 13.0012 0 0
                CHANNELS 3 Zrotation Xrotation Yrotation
                JOINT RightForeArm
                {
                  OFFSET 28.7848 1.62311e-005 0
                  CHANNELS 3 Zrotation Xrotation Yrotation
                  JOINT RightHand
                  {
                    OFFSET 26.5688 1.62095e-005 0
                    CHANNELS 3 Zrotation Xrotation Yrotation
                    End Site
                    {
                      OFFSET 0 0 0
                    }
                  }
                }
              }
            }
            JOINT LeftShoulder
            {
              OFFSET 2.38034 -1.29275 -3.7523
              CHANNELS 3 Zrotation Xrotation Yrotation
              JOINT LeftArm
              {
                OFFSET 16.3182 6.07031e-005 0
                CHANNELS 3 Zrotation Xrotation Yrotation
                JOINT LeftForeArm
                {
                  OFFSET 27.0901 0 0
                  CHANNELS 3 Zrotation Xrotation Yrotation
                  JOINT LeftHand
                  {
                    OFFSET 24.5451 1.51738e-005 0
                    CHANNELS 3 Zrotation Xrotation Yrotation
                    End Site
                    {
                      OFFSET 0 0 0
                    }
                  }
                }
              }
            }
            JOINT Neck
            {
              OFFSET 5.0226 -0.0266342 0
              CHANNELS 3 Zrotation Xrotation Yrotation
              JOINT Head
              {
                OFFSET 6.69364 2.86102e-005 0
                CHANNELS 3 Zrotation Xrotation Yrotation
                End Site
                {
                  OFFSET 0 0 0
                }
              }
            }
          }
        }
      }
    }
  }
}
MOTION
Frames:	6
Frame Time:	0.0416667
6604.52 618.019 6857.51 -70.5135 41.8208 -104.613 171.21 89.6333 110.879 -4.46449 6.63081 -2.19125 19.459 -6.49455 -26.2344 15.7421 12.5954 -44.4219 148.154 -58.6295 47.9166 4.4542 -30.5709 8.88441 19.035 -15.9534 45.9034 63.9901 -8.12196 52.261 2.12197 7.67026 -89.4193 11.5263 4.4932 0.696536 -0.136934 4.5195 0.4977 -22.7242 4.07582 2.0168 -2.71158 4.07583 2.0168 97.3008 -6.53495 -98.1398 51.0738 16.4996 -27.3147 -46.9083 -1.36522 -56.9995 7.53183 -4.8815 -51.9836 -82.4128 -36.8126 88.8461 -19.1451 19.6671 16.5482 94.3665 27.7992 -97.7137 54.6506 -10.5089 -12.1103 32.4217 -9.09187 2.47008 -9.20866 -9.3818 -5.90129 
6480.42 613.366 6693.6 -75.6367 42.3806 -99.9922 -177.069 80.3481 100.651 -4.56439 9.59238 -2.24718 21.9203 -9.26721 -27.856 12.5649 12.1609 -43.564 139.369 -64.2086 38.2917 3.25873 -52.6319 6.08403 24.2685 19.5032 35.4038 58.0465 -7.90686 56.654 1.84099 7.95826 -89.4946 10.9516 3.8992 0.637544 -0.71352 3.92349 0.46505 -23.2881 3.5271 1.78129 -3.27548 3.52711 1.78129 96.1758 -9.89316 -100.178 52.1271 14.3674 -20.5095 -47.3949 4.3103 -56.5353 19.323 -8.84654 -48.1274 -82.1029 -40.5671 89.7869 -21.1793 15.7167 6.63067 95.7572 30.4276 -97.3171 57.6681 -10.1017 -9.74168 31.1601 -8.41178 0.807261 -9.38384 -7.98903 -6.80204 
6349.99 601.719 6510.42 -80.7028 37.9834 -100.264 -172.977 68.1319 95.7578 -4.63806 11.7613 -2.17231 24.5305 -13.0223 -29.2683 12.9481 12.2959 -43.821 124.382 -66.0731 22.4805 -5.27792 -53.9734 0.852915 39.5097 34.6867 21.329 60.7039 -7.85038 55.6312 0.84475 8.24229 -89.0546 10.3681 2.11566 1.69445 -1.30259 2.18819 1.59971 -23.8326 1.50882 2.25173 -3.82 1.50883 2.25173 95.7789 -12.6429 -100.163 54.4675 10.473 -13.5682 -51.6025 -15.0778 -46.7483 8.00739 -5.43294 -54.1705 -82.4709 -42.9901 89.4121 -24.7199 15.6393 -1.50609 96.204 34.2549 -97.8973 62.2489 -10.343 -7.56082 29.3341 -7.50388 -1.26015 -10.4214 -6.22494 -7.34481 
6186.93 606.6 6309.96 -79.6186 38.8631 -100.692 -178.282 56.8694 108.593 -4.51623 6.02343 -1.89648 36.6787 -13.4306 -34.0971 8.72363 13.0545 -45.7447 122.252 -62.5424 11.9666 -2.19164 -39.5157 0.181193 57.3579 34.2249 14.2118 67.5707 -6.4173 61.9788 0.443344 7.96122 -88.886 10.9344 1.39802 2.08242 -0.737358 1.4883 2.01889 -23.2616 0.70774 2.40614 -3.24892 0.707734 2.40614 95.8405 -14.3055 -99.3584 57.0571 8.18888 -5.32326 -41.4909 -52.0346 -38.9392 -21.8602 3.15729 -45.2929 -82.8303 -43.9429 88.9208 -26.4463 17.0489 -12.2273 88.1026 31.5857 -91.7256 40.9951 -12.2428 -27.9506 26.9208 -5.70831 -3.2289 -10.8636 -3.74239 -8.04275 
5990.79 580.459 6107.26 -79.6275 39.1043 -101.743 -177.877 33.3854 118.06 -4.24389 7.95941 -1.74081 55.6287 -23.5911 -32.8835 18.9473 14.5661 -49.7167 128.819 -51.11 3.46721 -1.27006 -25.4379 0.00421163 94.5694 26.7477 9.3966 50.4447 -8.71215 45.5135 -0.137536 8.01097 -88.7465 10.842 0.305183 2.46458 -0.831191 0.41332 2.44878 -23.3479 -0.449391 2.44243 -3.33529 -0.449386 2.44243 96.487 -13.9745 -97.7295 58.5648 8.78521 3.9281 -34.2206 -58.5821 -41.4819 -28.4762 1.96176 -27.5186 -83.0659 -43.2271 88.4585 -24.903 18.3989 -28.4926 88.0332 26.462 -92.391 27.5065 -10.1636 -38.6394 26.6142 -3.32635 -4.10544 -9.23094 -1.20711 -8.99199 
5774.7 554.767 5890.95 -82.0739 37.2108 -98.5768 -172.115 2.13609 126.417 -4.4628 9.75141 -1.55539 91.4697 -28.696 -25.2642 18.4579 14.0573 -48.2104 156.058 -27.0802 5.13966 -1.06926 -23.2386 0.0188849 97.5661 44.6314 15.9662 22.1545 -6.96208 40.7826 -1.0931 7.94584 -88.7903 10.9973 -1.61607 2.54164 -0.675259 -1.50269 2.61023 -23.2041 -2.30489 1.93883 -3.1915 -2.30489 1.93883 96.8726 -13.9233 -96.6633 57.295 10.5563 13.6826 -116.784 -70.3899 -123.264 -22.1964 -1.84226 -14.5956 -83.4979 -40.4119 87.4408 -21.4099 17.1745 -38.3571 88.1429 22.3586 -91.1742 42.4784 -12.4324 -25.8169 24.317 -0.427157 -5.59149 -9.56509 1.95802 -8.41183 
